<?xml version="1.0" encoding="UTF-8" standalone="no"?><svg xmlns="http://www.w3.org/2000/svg" xmlns:xlink="http://www.w3.org/1999/xlink" contentScriptType="application/ecmascript" contentStyleType="text/css" height="802px" preserveAspectRatio="none" style="width:1553px;height:802px;" version="1.1" viewBox="0 0 1553 802" width="1553px" zoomAndPan="magnify"><defs><filter height="300%" id="fph81t5gi1of" width="300%" x="-1" y="-1"><feGaussianBlur result="blurOut" stdDeviation="2.0"/><feColorMatrix in="blurOut" result="blurOut2" type="matrix" values="0 0 0 0 0 0 0 0 0 0 0 0 0 0 0 0 0 0 .4 0"/><feOffset dx="4.0" dy="4.0" in="blurOut2" result="blurOut3"/><feBlend in="SourceGraphic" in2="blurOut3" mode="normal"/></filter></defs><g><text fill="#000000" font-family="sans-serif" font-size="18" lengthAdjust="spacingAndGlyphs" textLength="457" x="547.25" y="29.2419">UC-04 — Controlar Assiduidade (Check-in Self-Service)</text><rect fill="#FAEBD7" height="752.4074" style="stroke: #FAEBD7; stroke-width: 1.0;" width="509.5" x="10" y="38.2898"/><ellipse cx="385" cy="77.8057" fill="#000000" filter="url(#fph81t5gi1of)" rx="10" ry="10" style="stroke: none; stroke-width: 1.0;"/><rect fill="#FEFECE" filter="url(#fph81t5gi1of)" height="36.3441" rx="12.5" ry="12.5" style="stroke: #A80036; stroke-width: 1.5;" width="251" x="259.5" y="107.8057"/><text fill="#000000" font-family="sans-serif" font-size="12" lengthAdjust="spacingAndGlyphs" textLength="231" x="269.5" y="130.6337">Membro passa cartão/código no terminal</text><rect fill="#FEFECE" filter="url(#fph81t5gi1of)" height="36.3441" rx="12.5" ry="12.5" style="stroke: #A80036; stroke-width: 1.5;" width="110" x="330" y="663.529"/><text fill="#000000" font-family="sans-serif" font-size="12" lengthAdjust="spacingAndGlyphs" textLength="90" x="340" y="686.3571">Entra no ginásio</text><path d="M20,709.8731 L20,790.6972 L354,790.6972 L354,719.8731 L344,709.8731 L20,709.8731 " fill="#FBFB77" filter="url(#fph81t5gi1of)" style="stroke: #A80036; stroke-width: 1.0;"/><path d="M344,709.8731 L344,719.8731 L354,719.8731 L344,709.8731 " fill="#FBFB77" style="stroke: #A80036; stroke-width: 1.0;"/><text fill="#000000" font-family="sans-serif" font-size="13" font-weight="bold" lengthAdjust="spacingAndGlyphs" textLength="74" x="26" y="728.7702">Swimlanes:</text><text fill="#000000" font-family="sans-serif" font-size="13" lengthAdjust="spacingAndGlyphs" textLength="112" x="103" y="728.7702">Membro | Sistema</text><text fill="#000000" font-family="sans-serif" font-size="13" font-weight="bold" lengthAdjust="spacingAndGlyphs" textLength="81" x="26" y="746.4762">Paralelismo:</text><text fill="#000000" font-family="sans-serif" font-size="13" lengthAdjust="spacingAndGlyphs" textLength="157" x="110" y="746.4762">fork/merge nas validações</text><text fill="#000000" font-family="sans-serif" font-size="13" font-weight="bold" lengthAdjust="spacingAndGlyphs" textLength="61" x="26" y="764.1822">Decisões:</text><text fill="#000000" font-family="sans-serif" font-size="13" lengthAdjust="spacingAndGlyphs" textLength="249" x="90" y="764.1822">3 checks (inscrição, mensalidades, seguro)</text><text fill="#000000" font-family="sans-serif" font-size="13" font-weight="bold" lengthAdjust="spacingAndGlyphs" textLength="28" x="26" y="781.8882">Fim:</text><text fill="#000000" font-family="sans-serif" font-size="13" lengthAdjust="spacingAndGlyphs" textLength="221" x="57" y="781.8882">kill para bloqueios, stop para sucesso</text><ellipse cx="385" cy="750.2852" fill="#FFFFFF" filter="url(#fph81t5gi1of)" rx="11" ry="11" style="stroke: #000000; stroke-width: 1.0;"/><ellipse cx="385" cy="750.2852" fill="#000000" rx="6" ry="6" style="stroke: #7F7F7F; stroke-width: 1.0;"/><rect fill="#F0F8FF" height="752.4074" style="stroke: #F0F8FF; stroke-width: 1.0;" width="1022" x="519.5" y="38.2898"/><rect fill="#FFFFFF" filter="url(#fph81t5gi1of)" height="276.075" style="stroke: #000000; stroke-width: 2.0;" width="1003" x="529.5" y="155.7518"/><path d="M721.5,156.7518 L721.5,167.8197 L711.5,177.8197 L529.5,177.8197 " fill="none" style="stroke: #000000; stroke-width: 2.0;"/><text fill="#000000" font-family="sans-serif" font-size="14" font-weight="bold" lengthAdjust="spacingAndGlyphs" textLength="182" x="532.5" y="171.7177">Validações Paralelas (fork)</text><rect fill="#000000" filter="url(#fph81t5gi1of)" height="6" rx="2.5" ry="2.5" style="stroke: #000000; stroke-width: 1.0;" width="983" x="539.5" y="194.8197"/><rect fill="#FEFECE" filter="url(#fph81t5gi1of)" height="36.3441" rx="12.5" ry="12.5" style="stroke: #A80036; stroke-width: 1.5;" width="150" x="629" y="220.8197"/><text fill="#000000" font-family="sans-serif" font-size="12" lengthAdjust="spacingAndGlyphs" textLength="130" x="639" y="243.6478">Verificar inscrição ativa</text><rect fill="#FFC0CB" filter="url(#fph81t5gi1of)" height="36.3441" rx="12.5" ry="12.5" style="stroke: #A80036; stroke-width: 1.5;" width="281" x="563.5" y="326.6547"/><text fill="#000000" font-family="sans-serif" font-size="12" font-weight="bold" lengthAdjust="spacingAndGlyphs" textLength="48" x="573.5" y="349.4828">ALERTA:</text><text fill="#000000" font-family="sans-serif" font-size="12" lengthAdjust="spacingAndGlyphs" textLength="210" x="624.5" y="349.4828">Inscrição inativa — acesso bloqueado</text><polygon fill="#FEFECE" filter="url(#fph81t5gi1of)" points="664,277.1638,744,277.1638,756,289.1638,744,301.1638,664,301.1638,652,289.1638,664,277.1638" style="stroke: #A80036; stroke-width: 1.5;"/><text fill="#000000" font-family="sans-serif" font-size="11" lengthAdjust="spacingAndGlyphs" textLength="20" x="708" y="312.9227">não</text><text fill="#000000" font-family="sans-serif" font-size="11" lengthAdjust="spacingAndGlyphs" textLength="80" x="664" y="293.4318">Inscrição ativa?</text><rect fill="#FEFECE" filter="url(#fph81t5gi1of)" height="36.3441" rx="12.5" ry="12.5" style="stroke: #A80036; stroke-width: 1.5;" width="148" x="955.5" y="220.8197"/><text fill="#000000" font-family="sans-serif" font-size="12" lengthAdjust="spacingAndGlyphs" textLength="128" x="965.5" y="243.6478">Verificar mensalidades</text><rect fill="#FFC0CB" filter="url(#fph81t5gi1of)" height="36.3441" rx="12.5" ry="12.5" style="stroke: #A80036; stroke-width: 1.5;" width="322" x="868.5" y="326.6547"/><text fill="#000000" font-family="sans-serif" font-size="12" font-weight="bold" lengthAdjust="spacingAndGlyphs" textLength="48" x="878.5" y="349.4828">ALERTA:</text><text fill="#000000" font-family="sans-serif" font-size="12" lengthAdjust="spacingAndGlyphs" textLength="251" x="929.5" y="349.4828">Mensalidade em atraso — acesso bloqueado</text><polygon fill="#FEFECE" filter="url(#fph81t5gi1of)" points="983.5,277.1638,1075.5,277.1638,1087.5,289.1638,1075.5,301.1638,983.5,301.1638,971.5,289.1638,983.5,277.1638" style="stroke: #A80036; stroke-width: 1.5;"/><text fill="#000000" font-family="sans-serif" font-size="11" lengthAdjust="spacingAndGlyphs" textLength="20" x="1033.5" y="312.9227">não</text><text fill="#000000" font-family="sans-serif" font-size="11" lengthAdjust="spacingAndGlyphs" textLength="92" x="983.5" y="293.4318">Mensalidades ok?</text><rect fill="#FEFECE" filter="url(#fph81t5gi1of)" height="36.3441" rx="12.5" ry="12.5" style="stroke: #A80036; stroke-width: 1.5;" width="171" x="1270" y="220.8197"/><text fill="#000000" font-family="sans-serif" font-size="12" lengthAdjust="spacingAndGlyphs" textLength="151" x="1280" y="243.6478">Verificar seguro desportivo</text><rect fill="#FFC0CB" filter="url(#fph81t5gi1of)" height="36.3441" rx="12.5" ry="12.5" style="stroke: #A80036; stroke-width: 1.5;" width="282" x="1214.5" y="326.6547"/><text fill="#000000" font-family="sans-serif" font-size="12" font-weight="bold" lengthAdjust="spacingAndGlyphs" textLength="48" x="1224.5" y="349.4828">ALERTA:</text><text fill="#000000" font-family="sans-serif" font-size="12" lengthAdjust="spacingAndGlyphs" textLength="211" x="1275.5" y="349.4828">Seguro expirado — acesso bloqueado</text><polygon fill="#FEFECE" filter="url(#fph81t5gi1of)" points="1316.5,277.1638,1394.5,277.1638,1406.5,289.1638,1394.5,301.1638,1316.5,301.1638,1304.5,289.1638,1316.5,277.1638" style="stroke: #A80036; stroke-width: 1.5;"/><text fill="#000000" font-family="sans-serif" font-size="11" lengthAdjust="spacingAndGlyphs" textLength="20" x="1359.5" y="312.9227">não</text><text fill="#000000" font-family="sans-serif" font-size="11" lengthAdjust="spacingAndGlyphs" textLength="78" x="1316.5" y="293.4318">Seguro válido?</text><polygon fill="#FEFECE" filter="url(#fph81t5gi1of)" points="1036,395.8268,1048,407.8268,1036,419.8268,1024,407.8268,1036,395.8268" style="stroke: #A80036; stroke-width: 1.5;"/><rect fill="#FFFFFF" filter="url(#fph81t5gi1of)" height="200.1003" style="stroke: #000000; stroke-width: 2.0;" width="179" x="946.5" y="443.4288"/><path d="M1095.5,444.4288 L1095.5,455.4967 L1085.5,465.4967 L946.5,465.4967 " fill="none" style="stroke: #000000; stroke-width: 2.0;"/><text fill="#000000" font-family="sans-serif" font-size="14" font-weight="bold" lengthAdjust="spacingAndGlyphs" textLength="139" x="949.5" y="459.3947">Registo de Presença</text><rect fill="#FEFECE" filter="url(#fph81t5gi1of)" height="36.3441" rx="12.5" ry="12.5" style="stroke: #A80036; stroke-width: 1.5;" width="159" x="956.5" y="482.4967"/><text fill="#000000" font-family="sans-serif" font-size="12" lengthAdjust="spacingAndGlyphs" textLength="139" x="966.5" y="505.3248">Registar hora de entrada</text><rect fill="#FEFECE" filter="url(#fph81t5gi1of)" height="36.3441" rx="12.5" ry="12.5" style="stroke: #A80036; stroke-width: 1.5;" width="138" x="967" y="538.8408"/><text fill="#000000" font-family="sans-serif" font-size="12" lengthAdjust="spacingAndGlyphs" textLength="118" x="977" y="561.6689">Criar registo CheckIn</text><rect fill="#FEFECE" filter="url(#fph81t5gi1of)" height="36.3441" rx="12.5" ry="12.5" style="stroke: #A80036; stroke-width: 1.5;" width="143" x="964.5" y="595.1849"/><text fill="#000000" font-family="sans-serif" font-size="12" lengthAdjust="spacingAndGlyphs" textLength="123" x="974.5" y="618.013">Abrir porta/turniquete</text><line style="stroke: #A80036; stroke-width: 1.5;" x1="385" x2="385" y1="87.8057" y2="107.8057"/><polygon fill="#A80036" points="381,97.8057,385,107.8057,389,97.8057,385,101.8057" style="stroke: #A80036; stroke-width: 1.0;"/><line style="stroke: #A80036; stroke-width: 1.5;" x1="385" x2="385" y1="699.8731" y2="739.2852"/><polygon fill="#A80036" points="381,729.2852,385,739.2852,389,729.2852,385,733.2852" style="stroke: #A80036; stroke-width: 1.0;"/><line style="stroke: #A80036; stroke-width: 1.5;" x1="704" x2="704" y1="301.1638" y2="326.6547"/><polygon fill="#A80036" points="700,316.6547,704,326.6547,708,316.6547,704,320.6547" style="stroke: #A80036; stroke-width: 1.0;"/><line style="stroke: #A80036; stroke-width: 1.5;" x1="756" x2="854.5" y1="289.1638" y2="289.1638"/><polygon fill="#A80036" points="850.5,347.8268,854.5,357.8268,858.5,347.8268,854.5,351.8268" style="stroke: #A80036; stroke-width: 1.5;"/><line style="stroke: #A80036; stroke-width: 1.5;" x1="854.5" x2="854.5" y1="289.1638" y2="407.8268"/><line style="stroke: #A80036; stroke-width: 1.5;" x1="854.5" x2="1024" y1="407.8268" y2="407.8268"/><polygon fill="#A80036" points="1014,403.8268,1024,407.8268,1014,411.8268,1018,407.8268" style="stroke: #A80036; stroke-width: 1.0;"/><line style="stroke: #A80036; stroke-width: 1.5;" x1="704" x2="704" y1="257.1638" y2="277.1638"/><polygon fill="#A80036" points="700,267.1638,704,277.1638,708,267.1638,704,271.1638" style="stroke: #A80036; stroke-width: 1.0;"/><line style="stroke: #A80036; stroke-width: 1.5;" x1="1029.5" x2="1029.5" y1="301.1638" y2="326.6547"/><polygon fill="#A80036" points="1025.5,316.6547,1029.5,326.6547,1033.5,316.6547,1029.5,320.6547" style="stroke: #A80036; stroke-width: 1.0;"/><line style="stroke: #A80036; stroke-width: 1.5;" x1="1087.5" x2="1200.5" y1="289.1638" y2="289.1638"/><polygon fill="#A80036" points="1196.5,331.8268,1200.5,341.8268,1204.5,331.8268,1200.5,335.8268" style="stroke: #A80036; stroke-width: 1.5;"/><line style="stroke: #A80036; stroke-width: 1.5;" x1="1200.5" x2="1200.5" y1="289.1638" y2="385.8268"/><line style="stroke: #A80036; stroke-width: 1.5;" x1="1200.5" x2="1029.5" y1="385.8268" y2="385.8268"/><line style="stroke: #A80036; stroke-width: 1.5;" x1="1029.5" x2="1029.5" y1="385.8268" y2="407.8268"/><line style="stroke: #A80036; stroke-width: 1.5;" x1="1029.5" x2="1048" y1="407.8268" y2="407.8268"/><polygon fill="#A80036" points="1058,403.8268,1048,407.8268,1058,411.8268,1054,407.8268" style="stroke: #A80036; stroke-width: 1.0;"/><line style="stroke: #A80036; stroke-width: 1.5;" x1="1029.5" x2="1029.5" y1="257.1638" y2="277.1638"/><polygon fill="#A80036" points="1025.5,267.1638,1029.5,277.1638,1033.5,267.1638,1029.5,271.1638" style="stroke: #A80036; stroke-width: 1.0;"/><line style="stroke: #A80036; stroke-width: 1.5;" x1="1355.5" x2="1355.5" y1="301.1638" y2="326.6547"/><polygon fill="#A80036" points="1351.5,316.6547,1355.5,326.6547,1359.5,316.6547,1355.5,320.6547" style="stroke: #A80036; stroke-width: 1.0;"/><line style="stroke: #A80036; stroke-width: 1.5;" x1="1406.5" x2="1506.5" y1="289.1638" y2="289.1638"/><polygon fill="#A80036" points="1502.5,353.8268,1506.5,363.8268,1510.5,353.8268,1506.5,357.8268" style="stroke: #A80036; stroke-width: 1.5;"/><line style="stroke: #A80036; stroke-width: 1.5;" x1="1506.5" x2="1506.5" y1="289.1638" y2="419.8268"/><line style="stroke: #A80036; stroke-width: 1.5;" x1="1506.5" x2="1036" y1="419.8268" y2="419.8268"/><line style="stroke: #A80036; stroke-width: 1.5;" x1="1036" x2="1036" y1="419.8268" y2="482.4967"/><polygon fill="#A80036" points="1032,472.4967,1036,482.4967,1040,472.4967,1036,476.4967" style="stroke: #A80036; stroke-width: 1.0;"/><line style="stroke: #A80036; stroke-width: 1.5;" x1="1355.5" x2="1355.5" y1="257.1638" y2="277.1638"/><polygon fill="#A80036" points="1351.5,267.1638,1355.5,277.1638,1359.5,267.1638,1355.5,271.1638" style="stroke: #A80036; stroke-width: 1.0;"/><line style="stroke: #A80036; stroke-width: 1.5;" x1="704" x2="704" y1="200.8197" y2="220.8197"/><polygon fill="#A80036" points="700,210.8197,704,220.8197,708,210.8197,704,214.8197" style="stroke: #A80036; stroke-width: 1.0;"/><line style="stroke: #A80036; stroke-width: 1.5;" x1="1029.5" x2="1029.5" y1="200.8197" y2="220.8197"/><polygon fill="#A80036" points="1025.5,210.8197,1029.5,220.8197,1033.5,210.8197,1029.5,214.8197" style="stroke: #A80036; stroke-width: 1.0;"/><line style="stroke: #A80036; stroke-width: 1.5;" x1="1355.5" x2="1355.5" y1="200.8197" y2="220.8197"/><polygon fill="#A80036" points="1351.5,210.8197,1355.5,220.8197,1359.5,210.8197,1355.5,214.8197" style="stroke: #A80036; stroke-width: 1.0;"/><line style="stroke: #A80036; stroke-width: 1.5;" x1="1036" x2="1036" y1="518.8408" y2="538.8408"/><polygon fill="#A80036" points="1032,528.8408,1036,538.8408,1040,528.8408,1036,532.8408" style="stroke: #A80036; stroke-width: 1.0;"/><line style="stroke: #A80036; stroke-width: 1.5;" x1="1036" x2="1036" y1="575.1849" y2="595.1849"/><polygon fill="#A80036" points="1032,585.1849,1036,595.1849,1040,585.1849,1036,589.1849" style="stroke: #A80036; stroke-width: 1.0;"/><line style="stroke: #A80036; stroke-width: 1.5;" x1="385" x2="385" y1="144.1498" y2="157.7857"/><line style="stroke: #A80036; stroke-width: 1.5;" x1="385" x2="1036" y1="157.7857" y2="157.7857"/><line style="stroke: #A80036; stroke-width: 1.5;" x1="1036" x2="1036" y1="157.7857" y2="194.8197"/><polygon fill="#A80036" points="1032,184.8197,1036,194.8197,1040,184.8197,1036,188.8197" style="stroke: #A80036; stroke-width: 1.0;"/><line style="stroke: #A80036; stroke-width: 1.5;" x1="1036" x2="1036" y1="631.529" y2="648.529"/><line style="stroke: #A80036; stroke-width: 1.5;" x1="1036" x2="385" y1="648.529" y2="648.529"/><line style="stroke: #A80036; stroke-width: 1.5;" x1="385" x2="385" y1="648.529" y2="663.529"/><polygon fill="#A80036" points="381,653.529,385,663.529,389,653.529,385,657.529" style="stroke: #A80036; stroke-width: 1.0;"/><text fill="#000000" font-family="sans-serif" font-size="18" lengthAdjust="spacingAndGlyphs" textLength="0" x="226.75" y="57.5317"/><text fill="#000000" font-family="sans-serif" font-size="18" font-weight="bold" lengthAdjust="spacingAndGlyphs" textLength="76" x="226.75" y="57.5317">Membro</text><text fill="#000000" font-family="sans-serif" font-size="18" lengthAdjust="spacingAndGlyphs" textLength="0" x="307.75" y="57.5317"/><text fill="#000000" font-family="sans-serif" font-size="18" lengthAdjust="spacingAndGlyphs" textLength="0" x="938" y="57.5317"/><text fill="#000000" font-family="sans-serif" font-size="18" font-weight="bold" lengthAdjust="spacingAndGlyphs" textLength="195" x="938" y="57.5317">Sistema — Validações</text><text fill="#000000" font-family="sans-serif" font-size="18" lengthAdjust="spacingAndGlyphs" textLength="0" x="1138" y="57.5317"/><line style="stroke: #000000; stroke-width: 2.0;" x1="10" x2="10" y1="38.2898" y2="790.6972"/><line style="stroke: #000000; stroke-width: 2.0;" x1="519.5" x2="519.5" y1="38.2898" y2="790.6972"/><line style="stroke: #000000; stroke-width: 2.0;" x1="1541.5" x2="1541.5" y1="38.2898" y2="790.6972"/><!--MD5=[1f0fef7dbbccc3c70fdfda039a6edbd3]
@startuml
title UC-04 — Controlar Assiduidade (Check-in Self-Service)

|#AntiqueWhite| **Membro** |
start
:Membro passa cartão/código no terminal;

|#AliceBlue| **Sistema — Validações** |

partition "**Validações Paralelas (fork)**" {
    fork
        :Verificar inscrição ativa;
        if (Inscrição ativa?) then (não)
            #pink:**ALERTA:** Inscrição inativa — acesso bloqueado;
            kill
        endif
    fork again
        :Verificar mensalidades;
        if (Mensalidades ok?) then (não)
            #pink:**ALERTA:** Mensalidade em atraso — acesso bloqueado;
            kill
        endif
    fork again
        :Verificar seguro desportivo;
        if (Seguro válido?) then (não)
            #pink:**ALERTA:** Seguro expirado — acesso bloqueado;
            kill
        endif
    end merge
}

partition "**Registo de Presença**" {
    :Registar hora de entrada;
    :Criar registo CheckIn;
    :Abrir porta/turniquete;
}

|#AntiqueWhite| **Membro** |
:Entra no ginásio;
stop

floating note left
**Swimlanes:** Membro | Sistema
**Paralelismo:** fork/merge nas validações
**Decisões:** 3 checks (inscrição, mensalidades, seguro)
**Fim:** kill para bloqueios, stop para sucesso
end note

@enduml

PlantUML version 1.2020.02(Sun Mar 01 10:22:07 WET 2020)
(GPL source distribution)
Java Runtime: OpenJDK Runtime Environment
JVM: OpenJDK 64-Bit Server VM
Java Version: 21.0.10+7-Ubuntu-125.10
Operating System: Linux
Default Encoding: UTF-8
Language: en
Country: US
--></g></svg>