<?xml version="1.0" encoding="UTF-8" standalone="no"?><svg xmlns="http://www.w3.org/2000/svg" xmlns:xlink="http://www.w3.org/1999/xlink" contentScriptType="application/ecmascript" contentStyleType="text/css" height="1398px" preserveAspectRatio="none" style="width:911px;height:1398px;" version="1.1" viewBox="0 0 911 1398" width="911px" zoomAndPan="magnify"><defs><filter height="300%" id="f16ybs3ncxiiq2" width="300%" x="-1" y="-1"><feGaussianBlur result="blurOut" stdDeviation="2.0"/><feColorMatrix in="blurOut" result="blurOut2" type="matrix" values="0 0 0 0 0 0 0 0 0 0 0 0 0 0 0 0 0 0 .4 0"/><feOffset dx="4.0" dy="4.0" in="blurOut2" result="blurOut3"/><feBlend in="SourceGraphic" in2="blurOut3" mode="normal"/></filter></defs><g><text fill="#000000" font-family="sans-serif" font-size="18" lengthAdjust="spacingAndGlyphs" textLength="549" x="180.25" y="29.2419">UC-04 — Controlar Assiduidade (Fluxo Completo com Check-out)</text><rect fill="#FAEBD7" height="1348.6826" style="stroke: #FAEBD7; stroke-width: 1.0;" width="374.5" x="10" y="38.2898"/><ellipse cx="92.5" cy="77.8057" fill="#000000" filter="url(#f16ybs3ncxiiq2)" rx="10" ry="10" style="stroke: none; stroke-width: 1.0;"/><rect fill="#FEFECE" filter="url(#f16ybs3ncxiiq2)" height="36.3441" rx="12.5" ry="12.5" style="stroke: #A80036; stroke-width: 1.5;" width="110" x="37.5" y="107.8057"/><text fill="#000000" font-family="sans-serif" font-size="12" lengthAdjust="spacingAndGlyphs" textLength="90" x="47.5" y="130.6337">Entra no ginásio</text><rect fill="#FEFECE" filter="url(#f16ybs3ncxiiq2)" height="36.3441" rx="12.5" ry="12.5" style="stroke: #A80036; stroke-width: 1.5;" width="61" x="62" y="579.4032"/><text fill="#000000" font-family="sans-serif" font-size="12" lengthAdjust="spacingAndGlyphs" textLength="41" x="72" y="602.2312">Treinar</text><rect fill="#FEFECE" filter="url(#f16ybs3ncxiiq2)" height="36.3441" rx="12.5" ry="12.5" style="stroke: #A80036; stroke-width: 1.5;" width="138" x="23.5" y="679.7473"/><text fill="#000000" font-family="sans-serif" font-size="12" lengthAdjust="spacingAndGlyphs" textLength="118" x="33.5" y="702.5754">Membro termina uso</text><polygon fill="#FEFECE" filter="url(#f16ybs3ncxiiq2)" points="92.5,635.7473,104.5,647.7473,92.5,659.7473,80.5,647.7473,92.5,635.7473" style="stroke: #A80036; stroke-width: 1.5;"/><polygon fill="#FEFECE" filter="url(#f16ybs3ncxiiq2)" points="92.5,736.0914,104.5,748.0914,92.5,760.0914,80.5,748.0914,92.5,736.0914" style="stroke: #A80036; stroke-width: 1.5;"/><text fill="#000000" font-family="sans-serif" font-size="11" lengthAdjust="spacingAndGlyphs" textLength="113" x="104.5" y="744.8684">Mais membros a sair?</text><rect fill="#FEFECE" filter="url(#f16ybs3ncxiiq2)" height="36.3441" rx="12.5" ry="12.5" style="stroke: #A80036; stroke-width: 1.5;" width="145" x="20" y="780.0914"/><text fill="#000000" font-family="sans-serif" font-size="12" lengthAdjust="spacingAndGlyphs" textLength="125" x="30" y="802.9195">Passa cartão para sair</text><rect fill="#FEFECE" filter="url(#f16ybs3ncxiiq2)" height="36.3441" rx="12.5" ry="12.5" style="stroke: #A80036; stroke-width: 1.5;" width="97" x="44" y="1118.1561"/><text fill="#000000" font-family="sans-serif" font-size="12" lengthAdjust="spacingAndGlyphs" textLength="77" x="54" y="1140.9842">Sai do ginásio</text><path d="M123.5,1164.5002 L123.5,1386.9724 L374.5,1386.9724 L374.5,1174.5002 L364.5,1164.5002 L123.5,1164.5002 " fill="#FBFB77" filter="url(#f16ybs3ncxiiq2)" style="stroke: #A80036; stroke-width: 1.0;"/><path d="M364.5,1164.5002 L364.5,1174.5002 L374.5,1174.5002 L364.5,1164.5002 " fill="#FBFB77" style="stroke: #A80036; stroke-width: 1.0;"/><text fill="#000000" font-family="sans-serif" font-size="13" font-weight="bold" lengthAdjust="spacingAndGlyphs" textLength="74" x="129.5" y="1183.3972">Swimlanes:</text><text fill="#000000" font-family="sans-serif" font-size="13" lengthAdjust="spacingAndGlyphs" textLength="176" x="129.5" y="1201.1032">- Membro (ação do utilizador)</text><text fill="#000000" font-family="sans-serif" font-size="13" lengthAdjust="spacingAndGlyphs" textLength="230" x="129.5" y="1218.8092">- Sistema (processamento automático)</text><text fill="#000000" font-family="sans-serif" font-size="13" lengthAdjust="spacingAndGlyphs" textLength="0" x="132.5" y="1236.5152"/><text fill="#000000" font-family="sans-serif" font-size="13" font-weight="bold" lengthAdjust="spacingAndGlyphs" textLength="61" x="129.5" y="1254.2213">Decisões:</text><text fill="#000000" font-family="sans-serif" font-size="13" lengthAdjust="spacingAndGlyphs" textLength="98" x="129.5" y="1271.9273">- Inscrição ativa?</text><text fill="#000000" font-family="sans-serif" font-size="13" lengthAdjust="spacingAndGlyphs" textLength="178" x="129.5" y="1289.6333">- Mensalidades regularizadas?</text><text fill="#000000" font-family="sans-serif" font-size="13" lengthAdjust="spacingAndGlyphs" textLength="163" x="129.5" y="1307.3393">- Seguro desportivo válido?</text><text fill="#000000" font-family="sans-serif" font-size="13" lengthAdjust="spacingAndGlyphs" textLength="0" x="132.5" y="1325.0453"/><text fill="#000000" font-family="sans-serif" font-size="13" font-weight="bold" lengthAdjust="spacingAndGlyphs" textLength="81" x="129.5" y="1342.7513">Paralelismo:</text><text fill="#000000" font-family="sans-serif" font-size="13" lengthAdjust="spacingAndGlyphs" textLength="138" x="129.5" y="1360.4574">- Validações correm em</text><text fill="#000000" font-family="sans-serif" font-size="13" font-weight="bold" lengthAdjust="spacingAndGlyphs" textLength="75" x="270.5" y="1360.4574">fork/merge</text><text fill="#000000" font-family="sans-serif" font-size="13" lengthAdjust="spacingAndGlyphs" textLength="189" x="129.5" y="1378.1634">- Qualquer falha termina o fluxo</text><ellipse cx="92.5" cy="1275.7363" fill="#FFFFFF" filter="url(#f16ybs3ncxiiq2)" rx="11" ry="11" style="stroke: #000000; stroke-width: 1.0;"/><ellipse cx="92.5" cy="1275.7363" fill="#000000" rx="6" ry="6" style="stroke: #7F7F7F; stroke-width: 1.0;"/><rect fill="#F0F8FF" height="1348.6826" style="stroke: #F0F8FF; stroke-width: 1.0;" width="515" x="384.5" y="38.2898"/><rect fill="#FEFECE" filter="url(#f16ybs3ncxiiq2)" height="36.3441" rx="12.5" ry="12.5" style="stroke: #A80036; stroke-width: 1.5;" width="175" x="554.5" y="164.1498"/><text fill="#000000" font-family="sans-serif" font-size="12" lengthAdjust="spacingAndGlyphs" textLength="155" x="564.5" y="186.9779">Validar inscrições (paralelo)</text><rect fill="#000000" filter="url(#f16ybs3ncxiiq2)" height="6" rx="2.5" ry="2.5" style="stroke: #000000; stroke-width: 1.0;" width="496" x="394.5" y="220.4939"/><rect fill="#FEFECE" filter="url(#f16ybs3ncxiiq2)" height="36.3441" rx="12.5" ry="12.5" style="stroke: #A80036; stroke-width: 1.5;" width="106" x="410" y="246.4939"/><text fill="#000000" font-family="sans-serif" font-size="12" lengthAdjust="spacingAndGlyphs" textLength="86" x="420" y="269.322">Inscrição ativa?</text><rect fill="#FFC0CB" filter="url(#f16ybs3ncxiiq2)" height="36.3441" rx="12.5" ry="12.5" style="stroke: #A80036; stroke-width: 1.5;" width="113" x="406.5" y="353.5429"/><text fill="#000000" font-family="sans-serif" font-size="12" lengthAdjust="spacingAndGlyphs" textLength="93" x="416.5" y="376.371">Bloquear acesso</text><polygon fill="#FEFECE" filter="url(#f16ybs3ncxiiq2)" points="463,309.5429,475,321.5429,463,333.5429,451,321.5429,463,309.5429" style="stroke: #A80036; stroke-width: 1.5;"/><text fill="#000000" font-family="sans-serif" font-size="11" lengthAdjust="spacingAndGlyphs" textLength="20" x="469" y="306.3199">não</text><rect fill="#FEFECE" filter="url(#f16ybs3ncxiiq2)" height="36.3441" rx="12.5" ry="12.5" style="stroke: #A80036; stroke-width: 1.5;" width="119" x="576.5" y="246.4939"/><text fill="#000000" font-family="sans-serif" font-size="12" lengthAdjust="spacingAndGlyphs" textLength="99" x="586.5" y="269.322">Mensalidades ok?</text><rect fill="#FFC0CB" filter="url(#f16ybs3ncxiiq2)" height="36.3441" rx="12.5" ry="12.5" style="stroke: #A80036; stroke-width: 1.5;" width="113" x="579.5" y="353.5429"/><text fill="#000000" font-family="sans-serif" font-size="12" lengthAdjust="spacingAndGlyphs" textLength="93" x="589.5" y="376.371">Bloquear acesso</text><polygon fill="#FEFECE" filter="url(#f16ybs3ncxiiq2)" points="636,309.5429,648,321.5429,636,333.5429,624,321.5429,636,309.5429" style="stroke: #A80036; stroke-width: 1.5;"/><text fill="#000000" font-family="sans-serif" font-size="11" lengthAdjust="spacingAndGlyphs" textLength="20" x="642" y="306.3199">não</text><rect fill="#FEFECE" filter="url(#f16ybs3ncxiiq2)" height="36.3441" rx="12.5" ry="12.5" style="stroke: #A80036; stroke-width: 1.5;" width="101" x="757.5" y="246.4939"/><text fill="#000000" font-family="sans-serif" font-size="12" lengthAdjust="spacingAndGlyphs" textLength="81" x="767.5" y="269.322">Seguro válido?</text><rect fill="#FFC0CB" filter="url(#f16ybs3ncxiiq2)" height="36.3441" rx="12.5" ry="12.5" style="stroke: #A80036; stroke-width: 1.5;" width="113" x="751.5" y="353.5429"/><text fill="#000000" font-family="sans-serif" font-size="12" lengthAdjust="spacingAndGlyphs" textLength="93" x="761.5" y="376.371">Bloquear acesso</text><polygon fill="#FEFECE" filter="url(#f16ybs3ncxiiq2)" points="808,309.5429,820,321.5429,808,333.5429,796,321.5429,808,309.5429" style="stroke: #A80036; stroke-width: 1.5;"/><text fill="#000000" font-family="sans-serif" font-size="11" lengthAdjust="spacingAndGlyphs" textLength="20" x="814" y="306.3199">não</text><polygon fill="#FEFECE" filter="url(#f16ybs3ncxiiq2)" points="642,422.7149,654,434.7149,642,446.7149,630,434.7149,642,422.7149" style="stroke: #A80036; stroke-width: 1.5;"/><rect fill="#FEFECE" filter="url(#f16ybs3ncxiiq2)" height="36.3441" rx="12.5" ry="12.5" style="stroke: #A80036; stroke-width: 1.5;" width="159" x="562.5" y="466.7149"/><text fill="#000000" font-family="sans-serif" font-size="12" lengthAdjust="spacingAndGlyphs" textLength="139" x="572.5" y="489.543">Registar hora de entrada</text><rect fill="#FEFECE" filter="url(#f16ybs3ncxiiq2)" height="36.3441" rx="12.5" ry="12.5" style="stroke: #A80036; stroke-width: 1.5;" width="90" x="597" y="523.059"/><text fill="#000000" font-family="sans-serif" font-size="12" lengthAdjust="spacingAndGlyphs" textLength="70" x="607" y="545.8871">Abrir acesso</text><rect fill="#FEFECE" filter="url(#f16ybs3ncxiiq2)" height="36.3441" rx="12.5" ry="12.5" style="stroke: #A80036; stroke-width: 1.5;" width="96" x="594" y="836.4355"/><text fill="#000000" font-family="sans-serif" font-size="12" lengthAdjust="spacingAndGlyphs" textLength="76" x="604" y="859.2636">Detetar saída</text><rect fill="#FEFECE" filter="url(#f16ybs3ncxiiq2)" height="36.3441" rx="12.5" ry="12.5" style="stroke: #A80036; stroke-width: 1.5;" width="145" x="569.5" y="892.7796"/><text fill="#000000" font-family="sans-serif" font-size="12" lengthAdjust="spacingAndGlyphs" textLength="125" x="579.5" y="915.6077">Registar hora de saída</text><rect fill="#FEFECE" filter="url(#f16ybs3ncxiiq2)" height="36.3441" rx="12.5" ry="12.5" style="stroke: #A80036; stroke-width: 1.5;" width="199" x="542.5" y="949.1237"/><text fill="#000000" font-family="sans-serif" font-size="12" lengthAdjust="spacingAndGlyphs" textLength="179" x="552.5" y="971.9518">Calcular tempo de permanência</text><rect fill="#FEFECE" filter="url(#f16ybs3ncxiiq2)" height="36.3441" rx="12.5" ry="12.5" style="stroke: #A80036; stroke-width: 1.5;" width="160" x="562" y="1005.4678"/><text fill="#000000" font-family="sans-serif" font-size="12" lengthAdjust="spacingAndGlyphs" textLength="140" x="572" y="1028.2959">Atualizar registo CheckIn</text><rect fill="#FEFECE" filter="url(#f16ybs3ncxiiq2)" height="36.3441" rx="12.5" ry="12.5" style="stroke: #A80036; stroke-width: 1.5;" width="90" x="597" y="1061.812"/><text fill="#000000" font-family="sans-serif" font-size="12" lengthAdjust="spacingAndGlyphs" textLength="70" x="607" y="1084.64">Porta aberta</text><line style="stroke: #A80036; stroke-width: 1.5;" x1="92.5" x2="92.5" y1="87.8057" y2="107.8057"/><polygon fill="#A80036" points="88.5,97.8057,92.5,107.8057,96.5,97.8057,92.5,101.8057" style="stroke: #A80036; stroke-width: 1.0;"/><line style="stroke: #A80036; stroke-width: 1.5;" x1="92.5" x2="92.5" y1="659.7473" y2="679.7473"/><polygon fill="#A80036" points="88.5,669.7473,92.5,679.7473,96.5,669.7473,92.5,673.7473" style="stroke: #A80036; stroke-width: 1.0;"/><line style="stroke: #A80036; stroke-width: 1.5;" x1="104.5" x2="173.5" y1="748.0914" y2="748.0914"/><polygon fill="#A80036" points="169.5,707.9193,173.5,697.9193,177.5,707.9193,173.5,703.9193" style="stroke: #A80036; stroke-width: 1.5;"/><line style="stroke: #A80036; stroke-width: 1.5;" x1="173.5" x2="173.5" y1="647.7473" y2="748.0914"/><line style="stroke: #A80036; stroke-width: 1.5;" x1="173.5" x2="104.5" y1="647.7473" y2="647.7473"/><polygon fill="#A80036" points="114.5,643.7473,104.5,647.7473,114.5,651.7473,110.5,647.7473" style="stroke: #A80036; stroke-width: 1.0;"/><line style="stroke: #A80036; stroke-width: 1.5;" x1="92.5" x2="92.5" y1="716.0914" y2="736.0914"/><polygon fill="#A80036" points="88.5,726.0914,92.5,736.0914,96.5,726.0914,92.5,730.0914" style="stroke: #A80036; stroke-width: 1.0;"/><line style="stroke: #A80036; stroke-width: 1.5;" x1="92.5" x2="92.5" y1="615.7473" y2="635.7473"/><polygon fill="#A80036" points="88.5,625.7473,92.5,635.7473,96.5,625.7473,92.5,629.7473" style="stroke: #A80036; stroke-width: 1.0;"/><line style="stroke: #A80036; stroke-width: 1.5;" x1="92.5" x2="92.5" y1="760.0914" y2="780.0914"/><polygon fill="#A80036" points="88.5,770.0914,92.5,780.0914,96.5,770.0914,92.5,774.0914" style="stroke: #A80036; stroke-width: 1.0;"/><line style="stroke: #A80036; stroke-width: 1.5;" x1="92.5" x2="92.5" y1="1154.5002" y2="1264.7363"/><polygon fill="#A80036" points="88.5,1254.7363,92.5,1264.7363,96.5,1254.7363,92.5,1258.7363" style="stroke: #A80036; stroke-width: 1.0;"/><line style="stroke: #A80036; stroke-width: 1.5;" x1="463" x2="463" y1="333.5429" y2="353.5429"/><polygon fill="#A80036" points="459,343.5429,463,353.5429,467,343.5429,463,347.5429" style="stroke: #A80036; stroke-width: 1.0;"/><line style="stroke: #A80036; stroke-width: 1.5;" x1="475" x2="529.5" y1="321.5429" y2="321.5429"/><polygon fill="#A80036" points="525.5,374.7149,529.5,384.7149,533.5,374.7149,529.5,378.7149" style="stroke: #A80036; stroke-width: 1.5;"/><line style="stroke: #A80036; stroke-width: 1.5;" x1="529.5" x2="529.5" y1="321.5429" y2="434.7149"/><line style="stroke: #A80036; stroke-width: 1.5;" x1="529.5" x2="630" y1="434.7149" y2="434.7149"/><polygon fill="#A80036" points="620,430.7149,630,434.7149,620,438.7149,624,434.7149" style="stroke: #A80036; stroke-width: 1.0;"/><line style="stroke: #A80036; stroke-width: 1.5;" x1="463" x2="463" y1="282.838" y2="309.5429"/><polygon fill="#A80036" points="459,299.5429,463,309.5429,467,299.5429,463,303.5429" style="stroke: #A80036; stroke-width: 1.0;"/><line style="stroke: #A80036; stroke-width: 1.5;" x1="636" x2="636" y1="333.5429" y2="353.5429"/><polygon fill="#A80036" points="632,343.5429,636,353.5429,640,343.5429,636,347.5429" style="stroke: #A80036; stroke-width: 1.0;"/><line style="stroke: #A80036; stroke-width: 1.5;" x1="648" x2="702.5" y1="321.5429" y2="321.5429"/><polygon fill="#A80036" points="698.5,358.7149,702.5,368.7149,706.5,358.7149,702.5,362.7149" style="stroke: #A80036; stroke-width: 1.5;"/><line style="stroke: #A80036; stroke-width: 1.5;" x1="702.5" x2="702.5" y1="321.5429" y2="412.7149"/><line style="stroke: #A80036; stroke-width: 1.5;" x1="702.5" x2="636" y1="412.7149" y2="412.7149"/><line style="stroke: #A80036; stroke-width: 1.5;" x1="636" x2="636" y1="412.7149" y2="434.7149"/><line style="stroke: #A80036; stroke-width: 1.5;" x1="636" x2="654" y1="434.7149" y2="434.7149"/><polygon fill="#A80036" points="664,430.7149,654,434.7149,664,438.7149,660,434.7149" style="stroke: #A80036; stroke-width: 1.0;"/><line style="stroke: #A80036; stroke-width: 1.5;" x1="636" x2="636" y1="282.838" y2="309.5429"/><polygon fill="#A80036" points="632,299.5429,636,309.5429,640,299.5429,636,303.5429" style="stroke: #A80036; stroke-width: 1.0;"/><line style="stroke: #A80036; stroke-width: 1.5;" x1="808" x2="808" y1="333.5429" y2="353.5429"/><polygon fill="#A80036" points="804,343.5429,808,353.5429,812,343.5429,808,347.5429" style="stroke: #A80036; stroke-width: 1.0;"/><line style="stroke: #A80036; stroke-width: 1.5;" x1="820" x2="874.5" y1="321.5429" y2="321.5429"/><polygon fill="#A80036" points="870.5,380.7149,874.5,390.7149,878.5,380.7149,874.5,384.7149" style="stroke: #A80036; stroke-width: 1.5;"/><line style="stroke: #A80036; stroke-width: 1.5;" x1="874.5" x2="874.5" y1="321.5429" y2="446.7149"/><line style="stroke: #A80036; stroke-width: 1.5;" x1="874.5" x2="642" y1="446.7149" y2="446.7149"/><line style="stroke: #A80036; stroke-width: 1.5;" x1="642" x2="642" y1="446.7149" y2="466.7149"/><polygon fill="#A80036" points="638,456.7149,642,466.7149,646,456.7149,642,460.7149" style="stroke: #A80036; stroke-width: 1.0;"/><line style="stroke: #A80036; stroke-width: 1.5;" x1="808" x2="808" y1="282.838" y2="309.5429"/><polygon fill="#A80036" points="804,299.5429,808,309.5429,812,299.5429,808,303.5429" style="stroke: #A80036; stroke-width: 1.0;"/><line style="stroke: #A80036; stroke-width: 1.5;" x1="463" x2="463" y1="226.4939" y2="246.4939"/><polygon fill="#A80036" points="459,236.4939,463,246.4939,467,236.4939,463,240.4939" style="stroke: #A80036; stroke-width: 1.0;"/><line style="stroke: #A80036; stroke-width: 1.5;" x1="636" x2="636" y1="226.4939" y2="246.4939"/><polygon fill="#A80036" points="632,236.4939,636,246.4939,640,236.4939,636,240.4939" style="stroke: #A80036; stroke-width: 1.0;"/><line style="stroke: #A80036; stroke-width: 1.5;" x1="808" x2="808" y1="226.4939" y2="246.4939"/><polygon fill="#A80036" points="804,236.4939,808,246.4939,812,236.4939,808,240.4939" style="stroke: #A80036; stroke-width: 1.0;"/><line style="stroke: #A80036; stroke-width: 1.5;" x1="642" x2="642" y1="200.4939" y2="220.4939"/><polygon fill="#A80036" points="638,210.4939,642,220.4939,646,210.4939,642,214.4939" style="stroke: #A80036; stroke-width: 1.0;"/><line style="stroke: #A80036; stroke-width: 1.5;" x1="642" x2="642" y1="503.059" y2="523.059"/><polygon fill="#A80036" points="638,513.059,642,523.059,646,513.059,642,517.059" style="stroke: #A80036; stroke-width: 1.0;"/><line style="stroke: #A80036; stroke-width: 1.5;" x1="642" x2="642" y1="872.7796" y2="892.7796"/><polygon fill="#A80036" points="638,882.7796,642,892.7796,646,882.7796,642,886.7796" style="stroke: #A80036; stroke-width: 1.0;"/><line style="stroke: #A80036; stroke-width: 1.5;" x1="642" x2="642" y1="929.1237" y2="949.1237"/><polygon fill="#A80036" points="638,939.1237,642,949.1237,646,939.1237,642,943.1237" style="stroke: #A80036; stroke-width: 1.0;"/><line style="stroke: #A80036; stroke-width: 1.5;" x1="642" x2="642" y1="985.4678" y2="1005.4678"/><polygon fill="#A80036" points="638,995.4678,642,1005.4678,646,995.4678,642,999.4678" style="stroke: #A80036; stroke-width: 1.0;"/><line style="stroke: #A80036; stroke-width: 1.5;" x1="642" x2="642" y1="1041.812" y2="1061.812"/><polygon fill="#A80036" points="638,1051.812,642,1061.812,646,1051.812,642,1055.812" style="stroke: #A80036; stroke-width: 1.0;"/><line style="stroke: #A80036; stroke-width: 1.5;" x1="92.5" x2="92.5" y1="144.1498" y2="149.1498"/><line style="stroke: #A80036; stroke-width: 1.5;" x1="92.5" x2="642" y1="149.1498" y2="149.1498"/><line style="stroke: #A80036; stroke-width: 1.5;" x1="642" x2="642" y1="149.1498" y2="164.1498"/><polygon fill="#A80036" points="638,154.1498,642,164.1498,646,154.1498,642,158.1498" style="stroke: #A80036; stroke-width: 1.0;"/><line style="stroke: #A80036; stroke-width: 1.5;" x1="642" x2="642" y1="559.4032" y2="564.4032"/><line style="stroke: #A80036; stroke-width: 1.5;" x1="642" x2="92.5" y1="564.4032" y2="564.4032"/><line style="stroke: #A80036; stroke-width: 1.5;" x1="92.5" x2="92.5" y1="564.4032" y2="579.4032"/><polygon fill="#A80036" points="88.5,569.4032,92.5,579.4032,96.5,569.4032,92.5,573.4032" style="stroke: #A80036; stroke-width: 1.0;"/><line style="stroke: #A80036; stroke-width: 1.5;" x1="92.5" x2="92.5" y1="816.4355" y2="821.4355"/><line style="stroke: #A80036; stroke-width: 1.5;" x1="92.5" x2="642" y1="821.4355" y2="821.4355"/><line style="stroke: #A80036; stroke-width: 1.5;" x1="642" x2="642" y1="821.4355" y2="836.4355"/><polygon fill="#A80036" points="638,826.4355,642,836.4355,646,826.4355,642,830.4355" style="stroke: #A80036; stroke-width: 1.0;"/><line style="stroke: #A80036; stroke-width: 1.5;" x1="642" x2="642" y1="1098.1561" y2="1103.1561"/><line style="stroke: #A80036; stroke-width: 1.5;" x1="642" x2="92.5" y1="1103.1561" y2="1103.1561"/><line style="stroke: #A80036; stroke-width: 1.5;" x1="92.5" x2="92.5" y1="1103.1561" y2="1118.1561"/><polygon fill="#A80036" points="88.5,1108.1561,92.5,1118.1561,96.5,1108.1561,92.5,1112.1561" style="stroke: #A80036; stroke-width: 1.0;"/><text fill="#000000" font-family="sans-serif" font-size="18" lengthAdjust="spacingAndGlyphs" textLength="0" x="159.25" y="57.5317"/><text fill="#000000" font-family="sans-serif" font-size="18" font-weight="bold" lengthAdjust="spacingAndGlyphs" textLength="76" x="159.25" y="57.5317">Membro</text><text fill="#000000" font-family="sans-serif" font-size="18" lengthAdjust="spacingAndGlyphs" textLength="0" x="240.25" y="57.5317"/><text fill="#000000" font-family="sans-serif" font-size="18" lengthAdjust="spacingAndGlyphs" textLength="0" x="605.5" y="57.5317"/><text fill="#000000" font-family="sans-serif" font-size="18" font-weight="bold" lengthAdjust="spacingAndGlyphs" textLength="72" x="605.5" y="57.5317">Sistema</text><text fill="#000000" font-family="sans-serif" font-size="18" lengthAdjust="spacingAndGlyphs" textLength="0" x="682.5" y="57.5317"/><line style="stroke: #000000; stroke-width: 2.0;" x1="10" x2="10" y1="38.2898" y2="1386.9724"/><line style="stroke: #000000; stroke-width: 2.0;" x1="384.5" x2="384.5" y1="38.2898" y2="1386.9724"/><line style="stroke: #000000; stroke-width: 2.0;" x1="899.5" x2="899.5" y1="38.2898" y2="1386.9724"/><!--MD5=[3046da28e2e547e45c515164041f1d68]
@startuml
title UC-04 — Controlar Assiduidade (Fluxo Completo com Check-out)

skinparam ConditionStyle diamond

|#AntiqueWhite| **Membro** |

start
:Entra no ginásio;
|#AliceBlue| **Sistema** |

:Validar inscrições (paralelo);
fork
    :Inscrição ativa?;
    if (não) then
        #pink:Bloquear acesso;
        kill
    endif
fork again
    :Mensalidades ok?;
    if (não) then
        #pink:Bloquear acesso;
        kill
    endif
fork again
    :Seguro válido?;
    if (não) then
        #pink:Bloquear acesso;
        kill
    endif
end merge
:Registar hora de entrada;
:Abrir acesso;

|#AntiqueWhite| **Membro** |

:Treinar;

repeat
    :Membro termina uso;
repeat while (Mais membros a sair?) is (sim) not (não)

|#AntiqueWhite| **Membro** |

:Passa cartão para sair;

|#AliceBlue| **Sistema** |

:Detetar saída;
:Registar hora de saída;
:Calcular tempo de permanência;
:Atualizar registo CheckIn;
:Porta aberta;

|#AntiqueWhite| **Membro** |

:Sai do ginásio;
stop

floating note right
**Swimlanes:**
- Membro (ação do utilizador)
- Sistema (processamento automático)

**Decisões:**
- Inscrição ativa?
- Mensalidades regularizadas?
- Seguro desportivo válido?

**Paralelismo:**
- Validações correm em **fork/merge**
- Qualquer falha termina o fluxo
end note

@enduml

PlantUML version 1.2020.02(Sun Mar 01 10:22:07 WET 2020)
(GPL source distribution)
Java Runtime: OpenJDK Runtime Environment
JVM: OpenJDK 64-Bit Server VM
Java Version: 21.0.10+7-Ubuntu-125.10
Operating System: Linux
Default Encoding: UTF-8
Language: en
Country: US
--></g></svg>