<?xml version="1.0" encoding="UTF-8" standalone="no"?><svg xmlns="http://www.w3.org/2000/svg" xmlns:xlink="http://www.w3.org/1999/xlink" contentScriptType="application/ecmascript" contentStyleType="text/css" height="1247px" preserveAspectRatio="none" style="width:954px;height:1247px;" version="1.1" viewBox="0 0 954 1247" width="954px" zoomAndPan="magnify"><defs><filter height="300%" id="f1jpcmxnqpz1hg" width="300%" x="-1" y="-1"><feGaussianBlur result="blurOut" stdDeviation="2.0"/><feColorMatrix in="blurOut" result="blurOut2" type="matrix" values="0 0 0 0 0 0 0 0 0 0 0 0 0 0 0 0 0 0 .4 0"/><feOffset dx="4.0" dy="4.0" in="blurOut2" result="blurOut3"/><feBlend in="SourceGraphic" in2="blurOut3" mode="normal"/></filter></defs><g><text fill="#000000" font-family="sans-serif" font-size="18" lengthAdjust="spacingAndGlyphs" textLength="457" x="247.5" y="29.2419">UC-04 — Controlar Assiduidade (Check-in Self-Service)</text><rect fill="#FAEBD7" height="1122.6368" style="stroke: #FAEBD7; stroke-width: 1.0;" width="270" x="10" y="38.2898"/><ellipse cx="145.5" cy="77.8057" fill="#000000" filter="url(#f1jpcmxnqpz1hg)" rx="10" ry="10" style="stroke: none; stroke-width: 1.0;"/><rect fill="#FEFECE" filter="url(#f1jpcmxnqpz1hg)" height="36.3441" rx="12.5" ry="12.5" style="stroke: #A80036; stroke-width: 1.5;" width="251" x="20" y="107.8057"/><text fill="#000000" font-family="sans-serif" font-size="12" lengthAdjust="spacingAndGlyphs" textLength="231" x="30" y="130.6337">Membro passa cartão/código no terminal</text><rect fill="#FEFECE" filter="url(#f1jpcmxnqpz1hg)" height="36.3441" rx="12.5" ry="12.5" style="stroke: #A80036; stroke-width: 1.5;" width="110" x="90.5" y="1082.5825"/><text fill="#000000" font-family="sans-serif" font-size="12" lengthAdjust="spacingAndGlyphs" textLength="90" x="100.5" y="1105.4106">Entra no ginásio</text><ellipse cx="145.5" cy="1149.9266" fill="#FFFFFF" filter="url(#f1jpcmxnqpz1hg)" rx="11" ry="11" style="stroke: #000000; stroke-width: 1.0;"/><ellipse cx="145.5" cy="1149.9266" fill="#000000" rx="6" ry="6" style="stroke: #7F7F7F; stroke-width: 1.0;"/><rect fill="#ADD8E6" height="1122.6368" style="stroke: #ADD8E6; stroke-width: 1.0;" width="278" x="280" y="38.2898"/><rect fill="#FEFECE" filter="url(#f1jpcmxnqpz1hg)" height="36.3441" rx="12.5" ry="12.5" style="stroke: #A80036; stroke-width: 1.5;" width="259" x="290" y="164.1498"/><text fill="#000000" font-family="sans-serif" font-size="12" lengthAdjust="spacingAndGlyphs" textLength="239" x="300" y="186.9779">Obter dados do Membro (getMembroById)</text><rect fill="#F0F8FF" height="1122.6368" style="stroke: #F0F8FF; stroke-width: 1.0;" width="384" x="558" y="38.2898"/><rect fill="#FFFFFF" filter="url(#f1jpcmxnqpz1hg)" height="313.5912" style="stroke: #000000; stroke-width: 2.0;" width="330" x="588.5" y="212.0959"/><path d="M719.5,213.0959 L719.5,224.1638 L709.5,234.1638 L588.5,234.1638 " fill="none" style="stroke: #000000; stroke-width: 2.0;"/><text fill="#000000" font-family="sans-serif" font-size="14" lengthAdjust="spacingAndGlyphs" textLength="121" x="591.5" y="228.0618">Verificar Inscrição</text><rect fill="#FEFECE" filter="url(#f1jpcmxnqpz1hg)" height="36.3441" rx="12.5" ry="12.5" style="stroke: #A80036; stroke-width: 1.5;" width="150" x="672.5" y="251.1638"/><text fill="#000000" font-family="sans-serif" font-size="12" lengthAdjust="spacingAndGlyphs" textLength="130" x="682.5" y="273.9919">Verificar inscrição ativa</text><rect fill="#FFC0CB" filter="url(#f1jpcmxnqpz1hg)" height="36.3441" rx="12.5" ry="12.5" style="stroke: #A80036; stroke-width: 1.5;" width="278" x="608.5" y="356.9988"/><text fill="#000000" font-family="sans-serif" font-size="12" font-weight="bold" lengthAdjust="spacingAndGlyphs" textLength="45" x="618.5" y="379.8269">ALERTA</text><text fill="#000000" font-family="sans-serif" font-size="12" lengthAdjust="spacingAndGlyphs" textLength="210" x="666.5" y="379.8269">Inscrição inativa — acesso bloqueado</text><rect fill="#FEFECE" filter="url(#f1jpcmxnqpz1hg)" height="36.3441" rx="12.5" ry="12.5" style="stroke: #A80036; stroke-width: 1.5;" width="221" x="637" y="413.343"/><text fill="#000000" font-family="sans-serif" font-size="12" lengthAdjust="spacingAndGlyphs" textLength="201" x="647" y="436.171">Enviar "Acesso negado" ao Membro</text><ellipse cx="747.5" cy="480.6871" fill="#FFFFFF" filter="url(#f1jpcmxnqpz1hg)" rx="11" ry="11" style="stroke: #000000; stroke-width: 1.0;"/><ellipse cx="747.5" cy="480.6871" fill="#000000" rx="6" ry="6" style="stroke: #7F7F7F; stroke-width: 1.0;"/><polygon fill="#FEFECE" filter="url(#f1jpcmxnqpz1hg)" points="707.5,307.5079,787.5,307.5079,799.5,319.5079,787.5,331.5079,707.5,331.5079,695.5,319.5079,707.5,307.5079" style="stroke: #A80036; stroke-width: 1.5;"/><text fill="#000000" font-family="sans-serif" font-size="11" lengthAdjust="spacingAndGlyphs" textLength="20" x="751.5" y="343.2668">não</text><text fill="#000000" font-family="sans-serif" font-size="11" lengthAdjust="spacingAndGlyphs" textLength="80" x="707.5" y="323.7759">Inscrição ativa?</text><rect fill="#FFFFFF" filter="url(#f1jpcmxnqpz1hg)" height="313.5912" style="stroke: #000000; stroke-width: 2.0;" width="365" x="568" y="537.2891"/><path d="M732,538.2891 L732,549.357 L722,559.357 L568,559.357 " fill="none" style="stroke: #000000; stroke-width: 2.0;"/><text fill="#000000" font-family="sans-serif" font-size="14" lengthAdjust="spacingAndGlyphs" textLength="154" x="571" y="553.255">Verificar Mensalidades</text><rect fill="#FEFECE" filter="url(#f1jpcmxnqpz1hg)" height="36.3441" rx="12.5" ry="12.5" style="stroke: #A80036; stroke-width: 1.5;" width="148" x="673.5" y="576.357"/><text fill="#000000" font-family="sans-serif" font-size="12" lengthAdjust="spacingAndGlyphs" textLength="128" x="683.5" y="599.1851">Verificar mensalidades</text><rect fill="#FFC0CB" filter="url(#f1jpcmxnqpz1hg)" height="36.3441" rx="12.5" ry="12.5" style="stroke: #A80036; stroke-width: 1.5;" width="319" x="588" y="682.192"/><text fill="#000000" font-family="sans-serif" font-size="12" font-weight="bold" lengthAdjust="spacingAndGlyphs" textLength="45" x="598" y="705.0201">ALERTA</text><text fill="#000000" font-family="sans-serif" font-size="12" lengthAdjust="spacingAndGlyphs" textLength="251" x="646" y="705.0201">Mensalidade em atraso — acesso bloqueado</text><rect fill="#FEFECE" filter="url(#f1jpcmxnqpz1hg)" height="36.3441" rx="12.5" ry="12.5" style="stroke: #A80036; stroke-width: 1.5;" width="221" x="637" y="738.5361"/><text fill="#000000" font-family="sans-serif" font-size="12" lengthAdjust="spacingAndGlyphs" textLength="201" x="647" y="761.3642">Enviar "Acesso negado" ao Membro</text><ellipse cx="747.5" cy="805.8803" fill="#FFFFFF" filter="url(#f1jpcmxnqpz1hg)" rx="11" ry="11" style="stroke: #000000; stroke-width: 1.0;"/><ellipse cx="747.5" cy="805.8803" fill="#000000" rx="6" ry="6" style="stroke: #7F7F7F; stroke-width: 1.0;"/><polygon fill="#FEFECE" filter="url(#f1jpcmxnqpz1hg)" points="701.5,632.7011,793.5,632.7011,805.5,644.7011,793.5,656.7011,701.5,656.7011,689.5,644.7011,701.5,632.7011" style="stroke: #A80036; stroke-width: 1.5;"/><text fill="#000000" font-family="sans-serif" font-size="11" lengthAdjust="spacingAndGlyphs" textLength="20" x="751.5" y="668.46">não</text><text fill="#000000" font-family="sans-serif" font-size="11" lengthAdjust="spacingAndGlyphs" textLength="92" x="701.5" y="648.9691">Mensalidades ok?</text><rect fill="#FFFFFF" filter="url(#f1jpcmxnqpz1hg)" height="200.1003" style="stroke: #000000; stroke-width: 2.0;" width="253" x="621" y="862.4822"/><path d="M767,863.4822 L767,874.5502 L757,884.5502 L621,884.5502 " fill="none" style="stroke: #000000; stroke-width: 2.0;"/><text fill="#000000" font-family="sans-serif" font-size="14" lengthAdjust="spacingAndGlyphs" textLength="136" x="624" y="878.4482">Registo de Presença</text><rect fill="#FEFECE" filter="url(#f1jpcmxnqpz1hg)" height="36.3441" rx="12.5" ry="12.5" style="stroke: #A80036; stroke-width: 1.5;" width="138" x="678.5" y="901.5502"/><text fill="#000000" font-family="sans-serif" font-size="12" lengthAdjust="spacingAndGlyphs" textLength="118" x="688.5" y="924.3782">Criar registo CheckIn</text><rect fill="#FEFECE" filter="url(#f1jpcmxnqpz1hg)" height="36.3441" rx="12.5" ry="12.5" style="stroke: #A80036; stroke-width: 1.5;" width="233" x="631" y="957.8943"/><text fill="#000000" font-family="sans-serif" font-size="12" lengthAdjust="spacingAndGlyphs" textLength="213" x="641" y="980.7224">Enviar "Acesso permitido" ao Membro</text><rect fill="#FEFECE" filter="url(#f1jpcmxnqpz1hg)" height="36.3441" rx="12.5" ry="12.5" style="stroke: #A80036; stroke-width: 1.5;" width="143" x="676" y="1014.2384"/><text fill="#000000" font-family="sans-serif" font-size="12" lengthAdjust="spacingAndGlyphs" textLength="123" x="686" y="1037.0665">Abrir porta/turniquete</text><line style="stroke: #A80036; stroke-width: 1.5;" x1="145.5" x2="145.5" y1="87.8057" y2="107.8057"/><polygon fill="#A80036" points="141.5,97.8057,145.5,107.8057,149.5,97.8057,145.5,101.8057" style="stroke: #A80036; stroke-width: 1.0;"/><line style="stroke: #A80036; stroke-width: 1.5;" x1="145.5" x2="145.5" y1="1118.9266" y2="1138.9266"/><polygon fill="#A80036" points="141.5,1128.9266,145.5,1138.9266,149.5,1128.9266,145.5,1132.9266" style="stroke: #A80036; stroke-width: 1.0;"/><line style="stroke: #A80036; stroke-width: 1.5;" x1="747.5" x2="747.5" y1="393.343" y2="413.343"/><polygon fill="#A80036" points="743.5,403.343,747.5,413.343,751.5,403.343,747.5,407.343" style="stroke: #A80036; stroke-width: 1.0;"/><line style="stroke: #A80036; stroke-width: 1.5;" x1="747.5" x2="747.5" y1="449.6871" y2="469.6871"/><polygon fill="#A80036" points="743.5,459.6871,747.5,469.6871,751.5,459.6871,747.5,463.6871" style="stroke: #A80036; stroke-width: 1.0;"/><line style="stroke: #A80036; stroke-width: 1.5;" x1="747.5" x2="747.5" y1="331.5079" y2="356.9988"/><polygon fill="#A80036" points="743.5,346.9988,747.5,356.9988,751.5,346.9988,747.5,350.9988" style="stroke: #A80036; stroke-width: 1.0;"/><line style="stroke: #A80036; stroke-width: 1.5;" x1="799.5" x2="896.5" y1="319.5079" y2="319.5079"/><polygon fill="#A80036" points="892.5,411.343,896.5,421.343,900.5,411.343,896.5,415.343" style="stroke: #A80036; stroke-width: 1.5;"/><line style="stroke: #A80036; stroke-width: 1.5;" x1="896.5" x2="896.5" y1="319.5079" y2="513.6871"/><line style="stroke: #A80036; stroke-width: 1.5;" x1="896.5" x2="747.5" y1="513.6871" y2="513.6871"/><line style="stroke: #A80036; stroke-width: 1.5;" x1="747.5" x2="747.5" y1="513.6871" y2="576.357"/><polygon fill="#A80036" points="743.5,566.357,747.5,576.357,751.5,566.357,747.5,570.357" style="stroke: #A80036; stroke-width: 1.0;"/><line style="stroke: #A80036; stroke-width: 1.5;" x1="747.5" x2="747.5" y1="287.5079" y2="307.5079"/><polygon fill="#A80036" points="743.5,297.5079,747.5,307.5079,751.5,297.5079,747.5,301.5079" style="stroke: #A80036; stroke-width: 1.0;"/><line style="stroke: #A80036; stroke-width: 1.5;" x1="747.5" x2="747.5" y1="718.5361" y2="738.5361"/><polygon fill="#A80036" points="743.5,728.5361,747.5,738.5361,751.5,728.5361,747.5,732.5361" style="stroke: #A80036; stroke-width: 1.0;"/><line style="stroke: #A80036; stroke-width: 1.5;" x1="747.5" x2="747.5" y1="774.8803" y2="794.8803"/><polygon fill="#A80036" points="743.5,784.8803,747.5,794.8803,751.5,784.8803,747.5,788.8803" style="stroke: #A80036; stroke-width: 1.0;"/><line style="stroke: #A80036; stroke-width: 1.5;" x1="747.5" x2="747.5" y1="656.7011" y2="682.192"/><polygon fill="#A80036" points="743.5,672.192,747.5,682.192,751.5,672.192,747.5,676.192" style="stroke: #A80036; stroke-width: 1.0;"/><line style="stroke: #A80036; stroke-width: 1.5;" x1="805.5" x2="917" y1="644.7011" y2="644.7011"/><polygon fill="#A80036" points="913,736.5361,917,746.5361,921,736.5361,917,740.5361" style="stroke: #A80036; stroke-width: 1.5;"/><line style="stroke: #A80036; stroke-width: 1.5;" x1="917" x2="917" y1="644.7011" y2="838.8803"/><line style="stroke: #A80036; stroke-width: 1.5;" x1="917" x2="747.5" y1="838.8803" y2="838.8803"/><line style="stroke: #A80036; stroke-width: 1.5;" x1="747.5" x2="747.5" y1="838.8803" y2="901.5502"/><polygon fill="#A80036" points="743.5,891.5502,747.5,901.5502,751.5,891.5502,747.5,895.5502" style="stroke: #A80036; stroke-width: 1.0;"/><line style="stroke: #A80036; stroke-width: 1.5;" x1="747.5" x2="747.5" y1="612.7011" y2="632.7011"/><polygon fill="#A80036" points="743.5,622.7011,747.5,632.7011,751.5,622.7011,747.5,626.7011" style="stroke: #A80036; stroke-width: 1.0;"/><line style="stroke: #A80036; stroke-width: 1.5;" x1="747.5" x2="747.5" y1="937.8943" y2="957.8943"/><polygon fill="#A80036" points="743.5,947.8943,747.5,957.8943,751.5,947.8943,747.5,951.8943" style="stroke: #A80036; stroke-width: 1.0;"/><line style="stroke: #A80036; stroke-width: 1.5;" x1="747.5" x2="747.5" y1="994.2384" y2="1014.2384"/><polygon fill="#A80036" points="743.5,1004.2384,747.5,1014.2384,751.5,1004.2384,747.5,1008.2384" style="stroke: #A80036; stroke-width: 1.0;"/><line style="stroke: #A80036; stroke-width: 1.5;" x1="145.5" x2="145.5" y1="144.1498" y2="149.1498"/><line style="stroke: #A80036; stroke-width: 1.5;" x1="145.5" x2="419.5" y1="149.1498" y2="149.1498"/><line style="stroke: #A80036; stroke-width: 1.5;" x1="419.5" x2="419.5" y1="149.1498" y2="164.1498"/><polygon fill="#A80036" points="415.5,154.1498,419.5,164.1498,423.5,154.1498,419.5,158.1498" style="stroke: #A80036; stroke-width: 1.0;"/><line style="stroke: #A80036; stroke-width: 1.5;" x1="419.5" x2="419.5" y1="200.4939" y2="214.1298"/><line style="stroke: #A80036; stroke-width: 1.5;" x1="419.5" x2="747.5" y1="214.1298" y2="214.1298"/><line style="stroke: #A80036; stroke-width: 1.5;" x1="747.5" x2="747.5" y1="214.1298" y2="251.1638"/><polygon fill="#A80036" points="743.5,241.1638,747.5,251.1638,751.5,241.1638,747.5,245.1638" style="stroke: #A80036; stroke-width: 1.0;"/><line style="stroke: #A80036; stroke-width: 1.5;" x1="747.5" x2="747.5" y1="1050.5825" y2="1067.5825"/><line style="stroke: #A80036; stroke-width: 1.5;" x1="747.5" x2="145.5" y1="1067.5825" y2="1067.5825"/><line style="stroke: #A80036; stroke-width: 1.5;" x1="145.5" x2="145.5" y1="1067.5825" y2="1082.5825"/><polygon fill="#A80036" points="141.5,1072.5825,145.5,1082.5825,149.5,1072.5825,145.5,1076.5825" style="stroke: #A80036; stroke-width: 1.0;"/><text fill="#000000" font-family="sans-serif" font-size="18" font-weight="bold" lengthAdjust="spacingAndGlyphs" textLength="76" x="107" y="57.5317">Membro</text><text fill="#000000" font-family="sans-serif" font-size="18" font-weight="bold" lengthAdjust="spacingAndGlyphs" textLength="73" x="382.5" y="57.5317">CheckIn</text><text fill="#000000" font-family="sans-serif" font-size="18" font-weight="bold" lengthAdjust="spacingAndGlyphs" textLength="195" x="655.5" y="57.5317">Sistema — Validações</text><line style="stroke: #000000; stroke-width: 2.0;" x1="10" x2="10" y1="38.2898" y2="1160.9266"/><line style="stroke: #000000; stroke-width: 2.0;" x1="280" x2="280" y1="38.2898" y2="1160.9266"/><line style="stroke: #000000; stroke-width: 2.0;" x1="558" x2="558" y1="38.2898" y2="1160.9266"/><line style="stroke: #000000; stroke-width: 2.0;" x1="942" x2="942" y1="38.2898" y2="1160.9266"/><rect fill="#DDDDDD" height="67.2038" rx="5" ry="5" style="stroke: #000000; stroke-width: 1.0;" width="395" x="18" y="1168.9266"/><text fill="#000000" font-family="sans-serif" font-size="14" font-weight="bold" lengthAdjust="spacingAndGlyphs" textLength="78" x="24" y="1188.8926">Swimlanes:</text><text fill="#000000" font-family="sans-serif" font-size="14" lengthAdjust="spacingAndGlyphs" textLength="196" x="106" y="1188.8926">Membro | CheckIn | Sistema</text><text fill="#000000" font-family="sans-serif" font-size="14" font-weight="bold" lengthAdjust="spacingAndGlyphs" textLength="64" x="24" y="1207.9605">Decisões:</text><text fill="#000000" font-family="sans-serif" font-size="14" lengthAdjust="spacingAndGlyphs" textLength="315" x="92" y="1207.9605">2 checks sequenciais (inscrição, mensalidades)</text><text fill="#000000" font-family="sans-serif" font-size="14" font-weight="bold" lengthAdjust="spacingAndGlyphs" textLength="30" x="24" y="1227.0284">Fim:</text><text fill="#000000" font-family="sans-serif" font-size="14" lengthAdjust="spacingAndGlyphs" textLength="203" x="58" y="1227.0284">stop para bloqueios e sucesso</text><!--MD5=[e9c040e33d07a725853743cc26dec787]
@startuml
title UC-04 — Controlar Assiduidade (Check-in Self-Service)

|#AntiqueWhite|**Membro**|
start
:Membro passa cartão/código no terminal;

|#LightBlue|**CheckIn**|
:Obter dados do Membro (getMembroById);

|#AliceBlue|**Sistema — Validações**|
partition "Verificar Inscrição" {
    :Verificar inscrição ativa;
    if (Inscrição ativa?) then (não)
        #pink:**ALERTA** Inscrição inativa — acesso bloqueado;
        :Enviar "Acesso negado" ao Membro;
        stop
    endif
}

partition "Verificar Mensalidades" {
    :Verificar mensalidades;
    if (Mensalidades ok?) then (não)
        #pink:**ALERTA** Mensalidade em atraso — acesso bloqueado;
        :Enviar "Acesso negado" ao Membro;
        stop
    endif
}

partition "Registo de Presença" {
    :Criar registo CheckIn;
    :Enviar "Acesso permitido" ao Membro;
    :Abrir porta/turniquete;
}

|#AntiqueWhite|**Membro**|
:Entra no ginásio;
stop

legend left
  **Swimlanes:** Membro | CheckIn | Sistema
  **Decisões:** 2 checks sequenciais (inscrição, mensalidades)
  **Fim:** stop para bloqueios e sucesso
endlegend

@enduml

PlantUML version 1.2020.02(Sun Mar 01 10:22:07 WET 2020)
(GPL source distribution)
Java Runtime: OpenJDK Runtime Environment
JVM: OpenJDK 64-Bit Server VM
Java Version: 21.0.10+7-Ubuntu-125.10
Operating System: Linux
Default Encoding: UTF-8
Language: en
Country: US
--></g></svg>