<?xml version="1.0" encoding="UTF-8" standalone="no"?><svg xmlns="http://www.w3.org/2000/svg" xmlns:xlink="http://www.w3.org/1999/xlink" contentScriptType="application/ecmascript" contentStyleType="text/css" height="399px" preserveAspectRatio="none" style="width:246px;height:399px;" version="1.1" viewBox="0 0 246 399" width="246px" zoomAndPan="magnify"><defs><filter height="300%" id="f1blvc42av4us4" width="300%" x="-1" y="-1"><feGaussianBlur result="blurOut" stdDeviation="2.0"/><feColorMatrix in="blurOut" result="blurOut2" type="matrix" values="0 0 0 0 0 0 0 0 0 0 0 0 0 0 0 0 0 0 .4 0"/><feOffset dx="4.0" dy="4.0" in="blurOut2" result="blurOut3"/><feBlend in="SourceGraphic" in2="blurOut3" mode="normal"/></filter></defs><g><ellipse cx="66.5" cy="53.2898" fill="#000000" filter="url(#f1blvc42av4us4)" rx="10" ry="10" style="stroke: none; stroke-width: 1.0;"/><rect fill="#FEFECE" filter="url(#f1blvc42av4us4)" height="36.3441" rx="12.5" ry="12.5" style="stroke: #A80036; stroke-width: 1.5;" width="45" x="44" y="83.2898"/><text fill="#000000" font-family="sans-serif" font-size="12" lengthAdjust="spacingAndGlyphs" textLength="25" x="54" y="106.1179">foo1</text><rect fill="#FEFECE" filter="url(#f1blvc42av4us4)" height="36.3441" rx="12.5" ry="12.5" style="stroke: #A80036; stroke-width: 1.5;" width="45" x="44" y="252.3222"/><text fill="#000000" font-family="sans-serif" font-size="12" lengthAdjust="spacingAndGlyphs" textLength="25" x="54" y="275.1502">foo4</text><rect fill="#FAEBD7" height="373.2364" style="stroke: #FAEBD7; stroke-width: 1.0;" width="112" x="122" y="13.774"/><rect fill="#FEFECE" filter="url(#f1blvc42av4us4)" height="36.3441" rx="12.5" ry="12.5" style="stroke: #A80036; stroke-width: 1.5;" width="45" x="156" y="139.6339"/><text fill="#000000" font-family="sans-serif" font-size="12" lengthAdjust="spacingAndGlyphs" textLength="25" x="166" y="162.462">foo2</text><rect fill="#FEFECE" filter="url(#f1blvc42av4us4)" height="36.3441" rx="12.5" ry="12.5" style="stroke: #A80036; stroke-width: 1.5;" width="45" x="156" y="195.978"/><text fill="#000000" font-family="sans-serif" font-size="12" lengthAdjust="spacingAndGlyphs" textLength="25" x="166" y="218.8061">foo3</text><rect fill="#FEFECE" filter="url(#f1blvc42av4us4)" height="36.3441" rx="12.5" ry="12.5" style="stroke: #A80036; stroke-width: 1.5;" width="45" x="156" y="308.6663"/><text fill="#000000" font-family="sans-serif" font-size="12" lengthAdjust="spacingAndGlyphs" textLength="25" x="166" y="331.4944">foo5</text><ellipse cx="178.5" cy="376.0104" fill="#FFFFFF" filter="url(#f1blvc42av4us4)" rx="11" ry="11" style="stroke: #000000; stroke-width: 1.0;"/><ellipse cx="178.5" cy="376.0104" fill="#000000" rx="6" ry="6" style="stroke: #7F7F7F; stroke-width: 1.0;"/><line style="stroke: #A80036; stroke-width: 1.5;" x1="66.5" x2="66.5" y1="63.2898" y2="83.2898"/><polygon fill="#A80036" points="62.5,73.2898,66.5,83.2898,70.5,73.2898,66.5,77.2898" style="stroke: #A80036; stroke-width: 1.0;"/><line style="stroke: #A80036; stroke-width: 1.5;" x1="178.5" x2="178.5" y1="175.978" y2="195.978"/><polygon fill="#A80036" points="174.5,185.978,178.5,195.978,182.5,185.978,178.5,189.978" style="stroke: #A80036; stroke-width: 1.0;"/><line style="stroke: #A80036; stroke-width: 1.5;" x1="178.5" x2="178.5" y1="345.0104" y2="365.0104"/><polygon fill="#A80036" points="174.5,355.0104,178.5,365.0104,182.5,355.0104,178.5,359.0104" style="stroke: #A80036; stroke-width: 1.0;"/><line style="stroke: #A80036; stroke-width: 1.5;" x1="66.5" x2="66.5" y1="119.6339" y2="124.6339"/><line style="stroke: #A80036; stroke-width: 1.5;" x1="66.5" x2="178.5" y1="124.6339" y2="124.6339"/><line style="stroke: #A80036; stroke-width: 1.5;" x1="178.5" x2="178.5" y1="124.6339" y2="139.6339"/><polygon fill="#A80036" points="174.5,129.6339,178.5,139.6339,182.5,129.6339,178.5,133.6339" style="stroke: #A80036; stroke-width: 1.0;"/><line style="stroke: #A80036; stroke-width: 1.5;" x1="178.5" x2="178.5" y1="232.3222" y2="237.3222"/><line style="stroke: #A80036; stroke-width: 1.5;" x1="178.5" x2="66.5" y1="237.3222" y2="237.3222"/><line style="stroke: #A80036; stroke-width: 1.5;" x1="66.5" x2="66.5" y1="237.3222" y2="252.3222"/><polygon fill="#A80036" points="62.5,242.3222,66.5,252.3222,70.5,242.3222,66.5,246.3222" style="stroke: #A80036; stroke-width: 1.0;"/><line style="stroke: #A80036; stroke-width: 1.5;" x1="66.5" x2="66.5" y1="288.6663" y2="293.6663"/><line style="stroke: #A80036; stroke-width: 1.5;" x1="66.5" x2="178.5" y1="293.6663" y2="293.6663"/><line style="stroke: #A80036; stroke-width: 1.5;" x1="178.5" x2="178.5" y1="293.6663" y2="308.6663"/><polygon fill="#A80036" points="174.5,298.6663,178.5,308.6663,182.5,298.6663,178.5,302.6663" style="stroke: #A80036; stroke-width: 1.0;"/><text fill="#000000" font-family="sans-serif" font-size="18" lengthAdjust="spacingAndGlyphs" textLength="92" x="20" y="33.0158">Swimlane1</text><text fill="#000000" font-family="sans-serif" font-size="18" lengthAdjust="spacingAndGlyphs" textLength="92" x="132" y="33.0158">Swimlane2</text><line style="stroke: #000000; stroke-width: 2.0;" x1="10" x2="10" y1="13.774" y2="387.0104"/><line style="stroke: #000000; stroke-width: 2.0;" x1="122" x2="122" y1="13.774" y2="387.0104"/><line style="stroke: #000000; stroke-width: 2.0;" x1="234" x2="234" y1="13.774" y2="387.0104"/><!--MD5=[aad898c0cd98e6f1d8ad3d2d7bc551b3]
@startuml
|Swimlane1|
start
:foo1;
|#AntiqueWhite|Swimlane2|
:foo2;
:foo3;
|Swimlane1|
:foo4;
|Swimlane2|
:foo5;
stop
@enduml

PlantUML version 1.2020.02(Sun Mar 01 10:22:07 WET 2020)
(GPL source distribution)
Java Runtime: OpenJDK Runtime Environment
JVM: OpenJDK 64-Bit Server VM
Java Version: 21.0.10+7-Ubuntu-125.10
Operating System: Linux
Default Encoding: UTF-8
Language: en
Country: US
--></g></svg>