<?xml version="1.0" encoding="UTF-8" standalone="no"?><svg xmlns="http://www.w3.org/2000/svg" xmlns:xlink="http://www.w3.org/1999/xlink" contentScriptType="application/ecmascript" contentStyleType="text/css" height="809px" preserveAspectRatio="none" style="width:630px;height:809px;" version="1.1" viewBox="0 0 630 809" width="630px" zoomAndPan="magnify"><defs><filter height="300%" id="fbc04ovqf2hr3" width="300%" x="-1" y="-1"><feGaussianBlur result="blurOut" stdDeviation="2.0"/><feColorMatrix in="blurOut" result="blurOut2" type="matrix" values="0 0 0 0 0 0 0 0 0 0 0 0 0 0 0 0 0 0 .4 0"/><feOffset dx="4.0" dy="4.0" in="blurOut2" result="blurOut3"/><feBlend in="SourceGraphic" in2="blurOut3" mode="normal"/></filter></defs><g><ellipse cx="145.5" cy="53.2898" fill="#000000" filter="url(#fbc04ovqf2hr3)" rx="10" ry="10" style="stroke: none; stroke-width: 1.0;"/><rect fill="#FEFECE" filter="url(#fbc04ovqf2hr3)" height="36.3441" rx="12.5" ry="12.5" style="stroke: #A80036; stroke-width: 1.5;" width="251" x="20" y="83.2898"/><text fill="#000000" font-family="sans-serif" font-size="12" lengthAdjust="spacingAndGlyphs" textLength="231" x="30" y="106.1179">Membro passa cartão/código no terminal</text><rect fill="#FEFECE" filter="url(#fbc04ovqf2hr3)" height="36.3441" rx="12.5" ry="12.5" style="stroke: #A80036; stroke-width: 1.5;" width="110" x="90.5" y="719.3364"/><text fill="#000000" font-family="sans-serif" font-size="12" lengthAdjust="spacingAndGlyphs" textLength="90" x="100.5" y="742.1645">Entra no ginásio</text><ellipse cx="145.5" cy="786.6805" fill="#FFFFFF" filter="url(#fbc04ovqf2hr3)" rx="11" ry="11" style="stroke: #000000; stroke-width: 1.0;"/><ellipse cx="145.5" cy="786.6805" fill="#000000" rx="6" ry="6" style="stroke: #7F7F7F; stroke-width: 1.0;"/><rect fill="#FEFECE" filter="url(#fbc04ovqf2hr3)" height="36.3441" rx="12.5" ry="12.5" style="stroke: #A80036; stroke-width: 1.5;" width="157" x="354" y="139.6339"/><text fill="#000000" font-family="sans-serif" font-size="12" lengthAdjust="spacingAndGlyphs" textLength="137" x="364" y="162.462">Obter dados do Membro</text><rect fill="#FEFECE" filter="url(#fbc04ovqf2hr3)" height="36.3441" rx="12.5" ry="12.5" style="stroke: #A80036; stroke-width: 1.5;" width="153" x="356" y="245.469"/><text fill="#000000" font-family="sans-serif" font-size="12" lengthAdjust="spacingAndGlyphs" textLength="133" x="366" y="268.2971">Enviar "Acesso negado"</text><ellipse cx="432.5" cy="320.141" fill="#FFFFFF" filter="url(#fbc04ovqf2hr3)" rx="11" ry="11" style="stroke: #000000; stroke-width: 1.0;"/><ellipse cx="432.5" cy="320.141" fill="#000000" rx="6" ry="6" style="stroke: #7F7F7F; stroke-width: 1.0;"/><polygon fill="#FEFECE" filter="url(#fbc04ovqf2hr3)" points="392.5,195.978,472.5,195.978,484.5,207.978,472.5,219.978,392.5,219.978,380.5,207.978,392.5,195.978" style="stroke: #A80036; stroke-width: 1.5;"/><text fill="#000000" font-family="sans-serif" font-size="11" lengthAdjust="spacingAndGlyphs" textLength="20" x="436.5" y="231.737">não</text><text fill="#000000" font-family="sans-serif" font-size="11" lengthAdjust="spacingAndGlyphs" textLength="80" x="392.5" y="212.246">Inscrição ativa?</text><rect fill="#FEFECE" filter="url(#fbc04ovqf2hr3)" height="36.3441" rx="12.5" ry="12.5" style="stroke: #A80036; stroke-width: 1.5;" width="303" x="281" y="422.632"/><text fill="#000000" font-family="sans-serif" font-size="12" lengthAdjust="spacingAndGlyphs" textLength="283" x="291" y="445.4601">Enviar "Acesso negado — mensalidade em atraso"</text><ellipse cx="432.5" cy="497.304" fill="#FFFFFF" filter="url(#fbc04ovqf2hr3)" rx="11" ry="11" style="stroke: #000000; stroke-width: 1.0;"/><ellipse cx="432.5" cy="497.304" fill="#000000" rx="6" ry="6" style="stroke: #7F7F7F; stroke-width: 1.0;"/><polygon fill="#FEFECE" filter="url(#fbc04ovqf2hr3)" points="375.5,373.141,489.5,373.141,501.5,385.141,489.5,397.141,375.5,397.141,363.5,385.141,375.5,373.141" style="stroke: #A80036; stroke-width: 1.5;"/><text fill="#000000" font-family="sans-serif" font-size="11" lengthAdjust="spacingAndGlyphs" textLength="20" x="436.5" y="408.9">não</text><text fill="#000000" font-family="sans-serif" font-size="11" lengthAdjust="spacingAndGlyphs" textLength="114" x="375.5" y="389.409">Mensalidades em dia?</text><rect fill="#FEFECE" filter="url(#fbc04ovqf2hr3)" height="36.3441" rx="12.5" ry="12.5" style="stroke: #A80036; stroke-width: 1.5;" width="96" x="384.5" y="550.304"/><text fill="#000000" font-family="sans-serif" font-size="12" lengthAdjust="spacingAndGlyphs" textLength="76" x="394.5" y="573.1321">Criar CheckIn</text><rect fill="#FEFECE" filter="url(#fbc04ovqf2hr3)" height="36.3441" rx="12.5" ry="12.5" style="stroke: #A80036; stroke-width: 1.5;" width="143" x="361" y="606.6482"/><text fill="#000000" font-family="sans-serif" font-size="12" lengthAdjust="spacingAndGlyphs" textLength="123" x="371" y="629.4762">Abrir porta/turniquete</text><rect fill="#FEFECE" filter="url(#fbc04ovqf2hr3)" height="36.3441" rx="12.5" ry="12.5" style="stroke: #A80036; stroke-width: 1.5;" width="165" x="350" y="662.9923"/><text fill="#000000" font-family="sans-serif" font-size="12" lengthAdjust="spacingAndGlyphs" textLength="145" x="360" y="685.8204">Enviar "Acesso permitido"</text><line style="stroke: #A80036; stroke-width: 1.5;" x1="145.5" x2="145.5" y1="63.2898" y2="83.2898"/><polygon fill="#A80036" points="141.5,73.2898,145.5,83.2898,149.5,73.2898,145.5,77.2898" style="stroke: #A80036; stroke-width: 1.0;"/><line style="stroke: #A80036; stroke-width: 1.5;" x1="145.5" x2="145.5" y1="755.6805" y2="775.6805"/><polygon fill="#A80036" points="141.5,765.6805,145.5,775.6805,149.5,765.6805,145.5,769.6805" style="stroke: #A80036; stroke-width: 1.0;"/><line style="stroke: #A80036; stroke-width: 1.5;" x1="432.5" x2="432.5" y1="281.8131" y2="309.141"/><polygon fill="#A80036" points="428.5,299.141,432.5,309.141,436.5,299.141,432.5,303.141" style="stroke: #A80036; stroke-width: 1.0;"/><line style="stroke: #A80036; stroke-width: 1.5;" x1="432.5" x2="432.5" y1="219.978" y2="245.469"/><polygon fill="#A80036" points="428.5,235.469,432.5,245.469,436.5,235.469,432.5,239.469" style="stroke: #A80036; stroke-width: 1.0;"/><line style="stroke: #A80036; stroke-width: 1.5;" x1="484.5" x2="519" y1="207.978" y2="207.978"/><polygon fill="#A80036" points="515,279.141,519,289.141,523,279.141,519,283.141" style="stroke: #A80036; stroke-width: 1.5;"/><line style="stroke: #A80036; stroke-width: 1.5;" x1="519" x2="519" y1="207.978" y2="353.141"/><line style="stroke: #A80036; stroke-width: 1.5;" x1="519" x2="432.5" y1="353.141" y2="353.141"/><line style="stroke: #A80036; stroke-width: 1.5;" x1="432.5" x2="432.5" y1="353.141" y2="373.141"/><polygon fill="#A80036" points="428.5,363.141,432.5,373.141,436.5,363.141,432.5,367.141" style="stroke: #A80036; stroke-width: 1.0;"/><line style="stroke: #A80036; stroke-width: 1.5;" x1="432.5" x2="432.5" y1="175.978" y2="195.978"/><polygon fill="#A80036" points="428.5,185.978,432.5,195.978,436.5,185.978,432.5,189.978" style="stroke: #A80036; stroke-width: 1.0;"/><line style="stroke: #A80036; stroke-width: 1.5;" x1="432.5" x2="432.5" y1="458.9761" y2="486.304"/><polygon fill="#A80036" points="428.5,476.304,432.5,486.304,436.5,476.304,432.5,480.304" style="stroke: #A80036; stroke-width: 1.0;"/><line style="stroke: #A80036; stroke-width: 1.5;" x1="432.5" x2="432.5" y1="397.141" y2="422.632"/><polygon fill="#A80036" points="428.5,412.632,432.5,422.632,436.5,412.632,432.5,416.632" style="stroke: #A80036; stroke-width: 1.0;"/><line style="stroke: #A80036; stroke-width: 1.5;" x1="501.5" x2="594" y1="385.141" y2="385.141"/><polygon fill="#A80036" points="590,456.304,594,466.304,598,456.304,594,460.304" style="stroke: #A80036; stroke-width: 1.5;"/><line style="stroke: #A80036; stroke-width: 1.5;" x1="594" x2="594" y1="385.141" y2="530.304"/><line style="stroke: #A80036; stroke-width: 1.5;" x1="594" x2="432.5" y1="530.304" y2="530.304"/><line style="stroke: #A80036; stroke-width: 1.5;" x1="432.5" x2="432.5" y1="530.304" y2="550.304"/><polygon fill="#A80036" points="428.5,540.304,432.5,550.304,436.5,540.304,432.5,544.304" style="stroke: #A80036; stroke-width: 1.0;"/><line style="stroke: #A80036; stroke-width: 1.5;" x1="432.5" x2="432.5" y1="586.6482" y2="606.6482"/><polygon fill="#A80036" points="428.5,596.6482,432.5,606.6482,436.5,596.6482,432.5,600.6482" style="stroke: #A80036; stroke-width: 1.0;"/><line style="stroke: #A80036; stroke-width: 1.5;" x1="432.5" x2="432.5" y1="642.9923" y2="662.9923"/><polygon fill="#A80036" points="428.5,652.9923,432.5,662.9923,436.5,652.9923,432.5,656.9923" style="stroke: #A80036; stroke-width: 1.0;"/><line style="stroke: #A80036; stroke-width: 1.5;" x1="145.5" x2="145.5" y1="119.6339" y2="124.6339"/><line style="stroke: #A80036; stroke-width: 1.5;" x1="145.5" x2="432.5" y1="124.6339" y2="124.6339"/><line style="stroke: #A80036; stroke-width: 1.5;" x1="432.5" x2="432.5" y1="124.6339" y2="139.6339"/><polygon fill="#A80036" points="428.5,129.6339,432.5,139.6339,436.5,129.6339,432.5,133.6339" style="stroke: #A80036; stroke-width: 1.0;"/><line style="stroke: #A80036; stroke-width: 1.5;" x1="432.5" x2="432.5" y1="699.3364" y2="704.3364"/><line style="stroke: #A80036; stroke-width: 1.5;" x1="432.5" x2="145.5" y1="704.3364" y2="704.3364"/><line style="stroke: #A80036; stroke-width: 1.5;" x1="145.5" x2="145.5" y1="704.3364" y2="719.3364"/><polygon fill="#A80036" points="141.5,709.3364,145.5,719.3364,149.5,709.3364,145.5,713.3364" style="stroke: #A80036; stroke-width: 1.0;"/><text fill="#000000" font-family="sans-serif" font-size="18" lengthAdjust="spacingAndGlyphs" textLength="72" x="109" y="33.0158">Membro</text><text fill="#000000" font-family="sans-serif" font-size="18" lengthAdjust="spacingAndGlyphs" textLength="68" x="410.5" y="33.0158">Sistema</text><line style="stroke: #000000; stroke-width: 2.0;" x1="10" x2="10" y1="13.774" y2="797.6805"/><line style="stroke: #000000; stroke-width: 2.0;" x1="276" x2="276" y1="13.774" y2="797.6805"/><line style="stroke: #000000; stroke-width: 2.0;" x1="618" x2="618" y1="13.774" y2="797.6805"/><!--MD5=[411dc65ad6d70fce135ca562083a5947]
@startuml
|Membro|
start
:Membro passa cartão/código no terminal;

|Sistema|
:Obter dados do Membro;
if (Inscrição ativa?) then (não)
    :Enviar "Acesso negado";
    stop
endif
if (Mensalidades em dia?) then (não)
    :Enviar "Acesso negado — mensalidade em atraso";
    stop
endif
:Criar CheckIn;
:Abrir porta/turniquete;
:Enviar "Acesso permitido";

|Membro|
:Entra no ginásio;
stop
@enduml

PlantUML version 1.2020.02(Sun Mar 01 10:22:07 WET 2020)
(GPL source distribution)
Java Runtime: OpenJDK Runtime Environment
JVM: OpenJDK 64-Bit Server VM
Java Version: 21.0.10+7-Ubuntu-125.10
Operating System: Linux
Default Encoding: UTF-8
Language: en
Country: US
--></g></svg>